<svg width="750" height="240" viewBox="0 0 750 240" fill="none" xmlns="http://www.w3.org/2000/svg">
<g clip-path="url(#clip0_89_620)">
<path d="M47.6841 24.0327C71.1187 6.27542 101.172 -2.21404 130.116 0.495605C147.478 2.054 164.388 7.51563 179.246 16.269C189.155 22.0953 198.162 29.3625 205.879 37.7495C206.888 38.8474 206.861 40.7186 205.791 41.7554C204.719 42.7915 202.842 42.7637 201.771 41.7261C193.984 34.1773 185.131 27.7903 175.584 22.8169C161.267 15.3443 145.391 11.0747 129.421 10.3257C102.789 8.98858 76.0527 17.7158 55.5835 34.1597C35.0181 50.4966 20.8987 74.3917 16.5054 100.006C11.9707 125.6 17.1926 152.679 30.8647 174.723C44.4152 196.842 66.2893 213.727 91.2466 221.264C116.158 228.936 143.927 227.187 167.844 216.29C191.814 205.525 211.709 185.692 222.55 161.412C229.098 146.876 232.453 130.828 232.236 114.722C232.099 103.988 230.392 93.2306 227.155 82.897C226.71 81.4763 227.53 79.8014 228.941 79.3169C230.353 78.8328 232.036 79.6545 232.563 81.0474C236.58 91.6969 239.021 102.985 239.757 114.425C240.877 131.589 238.111 149.09 231.66 165.229C221.003 192.184 199.825 215.062 173.341 227.871C146.941 240.836 115.52 243.585 87.0688 235.258C58.5702 227.105 33.3568 207.962 17.8755 182.674C2.24009 157.482 -3.49618 126.416 2.0874 97.395C7.49421 68.3385 24.1469 41.6424 47.6841 24.0327ZM429.345 168.299C431.171 168.299 432.77 168.699 434.139 169.498C435.537 170.268 436.55 171.437 437.178 173.006L433.541 174.206C433.341 173.663 433.012 173.221 432.555 172.878C432.099 172.536 431.571 172.308 430.972 172.194C430.402 172.051 429.831 171.98 429.26 171.98C428.176 171.98 427.277 172.194 426.564 172.622C425.851 173.05 425.494 173.677 425.494 174.504C425.494 174.961 425.608 175.347 425.836 175.661C426.065 175.946 426.379 176.189 426.778 176.388C427.206 176.559 427.705 176.716 428.276 176.859C428.846 177.002 429.46 177.158 430.116 177.33C430.972 177.586 431.843 177.872 432.727 178.186C433.611 178.471 434.425 178.842 435.167 179.298C435.908 179.755 436.508 180.354 436.964 181.096C437.421 181.838 437.663 182.751 437.692 183.835C437.692 185.091 437.335 186.203 436.622 187.173C435.937 188.143 434.952 188.914 433.668 189.485C432.413 190.027 430.915 190.298 429.174 190.298C427.063 190.298 425.265 189.827 423.782 188.885C422.298 187.944 421.299 186.489 420.786 184.52L424.423 183.236C424.623 184.092 424.966 184.763 425.451 185.248C425.936 185.733 426.506 186.09 427.163 186.318C427.847 186.518 428.561 186.618 429.303 186.618C430.587 186.618 431.586 186.361 432.299 185.847C433.012 185.334 433.369 184.691 433.369 183.92C433.369 183.264 433.14 182.751 432.684 182.38C432.256 181.981 431.671 181.666 430.929 181.438C430.216 181.21 429.445 180.996 428.618 180.796C427.876 180.597 427.063 180.369 426.178 180.112C425.322 179.855 424.509 179.512 423.739 179.084C422.997 178.628 422.384 178.057 421.899 177.373C421.414 176.659 421.171 175.76 421.17 174.676C421.17 173.392 421.513 172.279 422.198 171.337C422.911 170.367 423.882 169.625 425.109 169.112C426.364 168.57 427.776 168.299 429.345 168.299ZM447.046 171.596C447.672 170.763 448.501 170.049 449.53 169.455C450.842 168.684 452.426 168.299 454.281 168.299C456.221 168.299 457.918 168.756 459.374 169.668C460.829 170.582 461.955 171.866 462.754 173.521C463.582 175.176 463.996 177.102 463.996 179.298C463.996 181.495 463.582 183.422 462.754 185.077C461.927 186.731 460.786 188.016 459.331 188.929C457.876 189.842 456.192 190.298 454.281 190.298C452.54 190.298 451.056 189.956 449.83 189.271C448.631 188.586 447.689 187.759 447.004 186.789L446.705 189.999H443.024L443.022 160H447.045L447.046 171.596ZM488.387 180.583C488.387 182.552 488.787 184.05 489.585 185.077C490.413 186.104 491.654 186.618 493.309 186.618C494.935 186.618 496.205 186.09 497.118 185.035C498.059 183.979 498.531 182.409 498.531 180.327V168.599H502.553V190H498.873L498.573 187.474C497.888 188.387 497.018 189.086 495.962 189.571C494.935 190.056 493.779 190.298 492.496 190.298C490.841 190.298 489.399 189.957 488.172 189.272C486.946 188.559 485.99 187.531 485.305 186.19C484.649 184.821 484.321 183.123 484.321 181.097V168.599H488.387V180.583ZM518.328 168.299C520.524 168.299 522.45 168.812 524.105 169.839C525.788 170.867 527.002 172.251 527.744 173.992L524.105 175.275C523.677 174.276 522.949 173.478 521.922 172.878C520.924 172.279 519.782 171.98 518.499 171.98C517.186 171.98 516.059 172.294 515.118 172.921C514.176 173.521 513.448 174.376 512.934 175.489C512.421 176.573 512.165 177.858 512.165 179.341C512.165 181.567 512.735 183.336 513.876 184.648C515.018 185.96 516.558 186.618 518.499 186.618C519.782 186.618 520.924 186.332 521.922 185.761C522.949 185.191 523.72 184.406 524.234 183.408L527.829 184.691C527.03 186.403 525.775 187.773 524.063 188.8C522.351 189.799 520.41 190.298 518.242 190.298C516.187 190.298 514.375 189.841 512.806 188.928C511.237 187.987 510.01 186.703 509.125 185.077C508.27 183.45 507.841 181.553 507.841 179.384C507.841 177.187 508.284 175.261 509.168 173.606C510.053 171.951 511.28 170.653 512.849 169.711C514.418 168.77 516.245 168.299 518.328 168.299ZM564.525 168.299C566.522 168.299 568.291 168.741 569.832 169.625C571.372 170.481 572.571 171.694 573.427 173.263C574.283 174.804 574.697 176.588 574.668 178.614C574.668 178.956 574.654 179.313 574.625 179.684C574.597 180.026 574.554 180.412 574.497 180.839H558.661C558.746 181.98 559.06 182.994 559.602 183.878C560.173 184.734 560.887 185.404 561.743 185.889C562.627 186.374 563.626 186.618 564.739 186.618C566.165 186.618 567.407 186.346 568.462 185.804C569.518 185.234 570.26 184.477 570.688 183.536L574.197 184.777C573.341 186.517 572.086 187.873 570.431 188.843C568.805 189.813 566.921 190.298 564.781 190.298C562.727 190.298 560.901 189.827 559.303 188.885C557.734 187.915 556.493 186.588 555.58 184.905C554.695 183.222 554.253 181.296 554.252 179.127C554.252 177.045 554.695 175.189 555.58 173.563C556.464 171.937 557.677 170.653 559.217 169.711C560.787 168.77 562.556 168.299 564.525 168.299ZM654.636 168.299C657.318 168.299 659.358 168.969 660.756 170.31C662.154 171.651 662.853 173.421 662.853 175.618V189.999H659.129L658.788 186.875C658.131 187.958 657.275 188.8 656.219 189.399C655.192 189.969 653.851 190.255 652.196 190.255C650.655 190.255 649.342 190.013 648.258 189.528C647.174 189.014 646.333 188.315 645.734 187.43C645.163 186.517 644.878 185.461 644.877 184.263C644.877 182.466 645.548 180.982 646.889 179.812C648.23 178.614 650.17 177.872 652.709 177.586L658.788 176.902V175.233C658.788 174.32 658.416 173.549 657.674 172.921C656.932 172.265 655.862 171.937 654.464 171.937C653.152 171.937 652.039 172.251 651.126 172.878C650.214 173.478 649.599 174.376 649.286 175.575L645.691 174.291C646.233 172.408 647.289 170.938 648.858 169.882C650.456 168.827 652.382 168.299 654.636 168.299ZM674.51 168.6H679.861V172.195H674.51V182.724C674.51 184.036 674.767 184.964 675.281 185.506C675.823 186.048 676.494 186.362 677.292 186.448C678.12 186.505 678.976 186.476 679.861 186.362V189.829C678.691 190.085 677.535 190.157 676.394 190.042C675.281 189.957 674.268 189.643 673.355 189.101C672.471 188.559 671.756 187.775 671.214 186.748C670.701 185.692 670.445 184.35 670.445 182.724V172.195H667.363V168.6H670.445V162.608H674.51V168.6ZM306.973 190H302.608L299.912 182.381H285.083L282.363 190H277.998L288.783 160.04H296.188L306.973 190ZM366.306 190H362.026V160.04H366.306V190ZM619.911 160.04C622.25 160.04 624.177 160.453 625.689 161.281C627.23 162.08 628.371 163.164 629.113 164.534C629.883 165.875 630.268 167.359 630.268 168.985C630.268 170.069 630.082 171.154 629.711 172.238C629.341 173.293 628.742 174.249 627.915 175.105C627.087 175.961 626.002 176.646 624.662 177.16C623.349 177.645 621.765 177.887 619.911 177.887H613.02V190H608.74V160.04H619.911ZM700.123 171.895L688.781 186.404H700.166V190H683.73V186.704L695.115 172.194H683.773V168.599H700.123V171.895ZM334.897 168.299C336.523 168.299 337.949 168.656 339.176 169.369C340.432 170.053 341.403 171.081 342.087 172.451C342.772 173.82 343.115 175.532 343.115 177.586V189.999H339.048V178.1C339.048 176.103 338.62 174.59 337.764 173.563C336.908 172.507 335.681 171.98 334.083 171.98C332.457 171.98 331.173 172.522 330.232 173.606C329.291 174.69 328.819 176.274 328.819 178.357V189.999H324.753V178.1C324.753 176.103 324.354 174.59 323.555 173.563C322.756 172.507 321.557 171.98 319.959 171.98C318.333 171.98 317.063 172.522 316.15 173.606C315.266 174.69 314.824 176.274 314.824 178.357V189.999H310.8V168.598H314.481L314.738 171.081C315.422 170.225 316.279 169.554 317.306 169.069C318.333 168.555 319.489 168.299 320.773 168.299C322.228 168.299 323.541 168.627 324.71 169.284C325.909 169.911 326.85 170.853 327.535 172.108C328.248 170.853 329.262 169.911 330.574 169.284C331.886 168.627 333.328 168.299 334.897 168.299ZM383.246 168.299C384.9 168.299 386.328 168.655 387.526 169.369C388.753 170.053 389.695 171.081 390.351 172.451C391.036 173.82 391.378 175.532 391.378 177.586V189.999H387.355V178.1C387.355 176.103 386.927 174.59 386.071 173.563C385.243 172.507 384.031 171.98 382.433 171.98C380.778 171.98 379.494 172.522 378.581 173.606C377.668 174.662 377.211 176.231 377.211 178.314V189.999H373.188V168.598H376.869L377.125 171.081C377.81 170.196 378.681 169.512 379.737 169.027C380.792 168.542 381.962 168.299 383.246 168.299ZM407.669 168.299C409.324 168.299 410.751 168.655 411.95 169.369C413.177 170.053 414.119 171.081 414.775 172.451C415.46 173.82 415.802 175.532 415.802 177.586V189.999H411.779V178.1C411.779 176.103 411.351 174.59 410.495 173.563C409.667 172.507 408.455 171.98 406.857 171.98C405.202 171.98 403.917 172.522 403.004 173.606C402.092 174.662 401.635 176.231 401.635 178.314V189.999H397.612V168.598H401.292L401.549 171.081C402.234 170.196 403.105 169.512 404.161 169.027C405.216 168.542 406.386 168.299 407.669 168.299ZM477.67 168.556C478.612 168.356 479.583 168.37 480.582 168.598V172.408C479.64 172.18 478.727 172.151 477.842 172.322C476.958 172.493 476.158 172.864 475.445 173.435C474.76 173.977 474.204 174.705 473.776 175.618C473.348 176.531 473.134 177.63 473.134 178.914V189.999H469.111V168.598H472.792L473.048 171.466C473.647 170.725 474.333 170.111 475.103 169.625C475.902 169.112 476.758 168.756 477.67 168.556ZM537.23 177.543H538.984L546.988 168.598H552.466L542.537 179.298L552.509 189.999H546.988L538.984 181.01H537.23V189.999H533.164L533.382 160H537.449L537.23 177.543ZM588.598 168.556C589.54 168.356 590.511 168.37 591.509 168.598V172.408C590.568 172.18 589.654 172.151 588.77 172.322C587.886 172.493 587.086 172.864 586.373 173.435C585.688 173.977 585.131 174.705 584.704 175.618C584.276 176.531 584.062 177.63 584.062 178.914V189.999H580.039V168.598H583.719L583.976 171.466C584.575 170.725 585.261 170.111 586.031 169.625C586.829 169.112 587.685 168.756 588.598 168.556ZM639.516 189.999H635.493V160H639.516V189.999ZM652.924 180.925C651.669 181.096 650.727 181.453 650.099 181.995C649.472 182.508 649.158 183.193 649.158 184.049C649.158 184.848 649.457 185.519 650.056 186.061C650.684 186.575 651.555 186.832 652.667 186.832C654.037 186.831 655.178 186.574 656.091 186.061C657.004 185.548 657.675 184.833 658.103 183.92C658.559 182.979 658.787 181.895 658.788 180.668V180.197L652.924 180.925ZM453.381 171.98C452.183 171.98 451.113 172.279 450.171 172.878C449.23 173.449 448.473 174.277 447.903 175.361C447.332 176.445 447.047 177.758 447.047 179.298C447.047 180.839 447.332 182.166 447.903 183.279C448.473 184.363 449.23 185.191 450.171 185.761C451.113 186.332 452.183 186.618 453.381 186.618C455.236 186.618 456.734 185.947 457.875 184.606C459.045 183.265 459.63 181.495 459.63 179.298C459.63 177.102 459.045 175.333 457.875 173.992C456.734 172.651 455.236 171.98 453.381 171.98ZM286.368 178.786H298.639L293.277 163.634H291.779L286.368 178.786ZM564.482 171.937C563.512 171.937 562.613 172.18 561.786 172.665C560.987 173.121 560.302 173.763 559.731 174.59C559.189 175.389 558.846 176.317 558.704 177.373H570.259C570.259 176.345 570.002 175.418 569.489 174.59C568.975 173.763 568.276 173.121 567.392 172.665C566.536 172.18 565.566 171.937 564.482 171.937ZM613.02 174.292H619.911C621.309 174.291 622.45 174.078 623.334 173.65C624.247 173.193 624.918 172.566 625.346 171.767C625.774 170.968 625.988 170.04 625.988 168.985C625.988 167.301 625.503 165.989 624.533 165.047C623.563 164.106 622.022 163.634 619.911 163.634H613.02V174.292ZM235.149 0.725098C236.218 -0.278615 238.089 -0.240067 239.125 0.794434C240.163 1.83178 240.2 3.70039 239.195 4.771C231.273 13.1992 225.477 22.7056 225.927 34.8062C226.068 39.3509 226.213 43.8962 226.354 48.4409C227.025 61.5868 215.361 74.1214 201.633 74.1519C198.491 74.2493 195.345 74.3425 192.204 74.4399C180.386 74.8129 169.004 80.0789 161.207 88.52C156.979 93.0181 152.74 97.5147 148.509 102.012C147.102 103.508 146.791 105.693 147.34 107.672C150.016 117.315 145.768 127.806 137.23 136.344C125.335 148.239 109.208 151.394 97.7456 139.934C86.2832 128.472 89.4389 112.345 101.334 100.449C110.656 91.1268 122.311 86.901 132.642 91.2339C134.78 92.1305 137.311 91.9512 139 90.3638C143.133 86.4807 147.269 82.5955 151.4 78.7134C162.352 68.2715 177.411 62.5898 192.204 63.0562C195.345 63.1536 198.491 63.2468 201.633 63.3442C209.54 63.9007 217.384 56.9289 217.529 48.4409C217.67 43.8961 217.814 39.3509 217.955 34.8062C218.312 20.8375 225.355 9.93039 235.149 0.725098ZM474.277 125.294C474.277 127.156 474.657 128.734 475.417 130.026C476.176 131.28 477.203 132.23 478.495 132.875C479.824 133.521 481.344 133.844 483.054 133.844C484.802 133.844 486.341 133.521 487.671 132.875C489.001 132.23 490.046 131.279 490.806 130.026C491.566 128.734 491.947 127.156 491.947 125.294V100.1H499.641V124.896C499.641 127.518 499.186 129.798 498.274 131.736C497.362 133.674 496.107 135.289 494.511 136.581C492.953 137.872 491.168 138.842 489.154 139.488C487.178 140.096 485.107 140.4 482.941 140.4C480.053 140.4 477.354 139.83 474.846 138.69C472.377 137.55 470.382 135.84 468.862 133.56C467.342 131.28 466.582 128.392 466.582 124.896V100.1H474.277V125.294ZM308.245 105.971L288.009 133.56H308.245V140H279.003V134.129L299.125 106.542H279.003V100.1H308.245V105.971ZM343.844 106.542H323.496V116.688H338.714V122.901H323.496V133.56H343.844V140H315.8V100.1H343.844V106.542ZM376.928 127.802V100.1H384.624V140H376.757L359.316 112.298V140H351.621V100.1H359.429L376.928 127.802ZM422.517 106.542H410.206V140H402.51V106.542H390.141V100.1H422.517V106.542ZM444.677 100.1C447.907 100.1 450.568 100.671 452.658 101.811C454.785 102.913 456.362 104.414 457.388 106.314C458.452 108.176 458.984 110.209 458.984 112.413C458.984 113.894 458.718 115.377 458.186 116.859C457.654 118.302 456.818 119.632 455.678 120.848C454.538 122.026 453.056 122.977 451.232 123.699C450.883 123.84 450.518 123.966 450.138 124.08L459.783 140H451.175L442.346 124.782H435.957V140H428.261V100.1H444.677ZM530.419 129.968L543.13 100.1H551.908V140H544.213V114.237L533.44 140H527.398L516.625 114.237V140H508.93V100.1H517.708L530.419 129.968ZM435.957 118.34H444.45C445.969 118.34 447.224 118.113 448.211 117.657C449.199 117.163 449.921 116.479 450.377 115.605C450.871 114.693 451.119 113.628 451.119 112.413C451.119 110.627 450.567 109.201 449.465 108.137C448.401 107.073 446.729 106.542 444.45 106.542H435.957V118.34ZM561.752 65.2944C561.752 67.1563 562.132 68.734 562.892 70.0259C563.652 71.2797 564.678 72.2296 565.97 72.8755C567.3 73.5214 568.82 73.8442 570.53 73.8442C572.278 73.8442 573.817 73.5213 575.147 72.8755C576.477 72.2296 577.522 71.2795 578.282 70.0259C579.042 68.734 579.422 67.1563 579.422 65.2944V40.1001H587.117V64.896C587.117 67.5177 586.661 69.798 585.75 71.7358C584.838 73.6736 583.583 75.2887 581.987 76.5806C580.429 77.8723 578.643 78.8419 576.629 79.4878C574.654 80.0957 572.582 80.3999 570.417 80.3999C567.529 80.3999 564.83 79.8299 562.322 78.6899C559.852 77.55 557.857 75.8397 556.337 73.5601C554.818 71.2802 554.057 68.3916 554.057 64.896V40.1001H561.752V65.2944ZM650.976 39.6997C653.294 39.6997 655.385 40.0421 657.247 40.7261C658.992 41.3317 660.471 42.2215 661.682 43.395L662.159 43.8716C663.33 45.0829 664.201 46.5614 664.771 48.3071L657.646 50.2456C657.456 49.4096 657.037 48.6876 656.391 48.0796C655.745 47.4716 654.966 46.9958 654.054 46.6538C653.142 46.2739 652.154 46.0845 651.09 46.0845C649.951 46.0465 648.905 46.2172 647.956 46.5972C647.006 46.9772 646.245 47.5286 645.675 48.2505C645.106 48.9723 644.821 49.8086 644.821 50.7583C644.821 51.8219 645.144 52.6769 645.79 53.3228C646.436 53.9307 647.291 54.4635 648.355 54.9194C649.419 55.3374 650.616 55.7554 651.946 56.1733C653.542 56.6293 655.138 57.1611 656.734 57.769C658.33 58.339 659.793 59.0807 661.123 59.9927C662.452 60.8667 663.517 61.9871 664.315 63.355C665.151 64.7229 665.569 66.4526 665.569 68.5425C665.569 70.7462 665.036 72.7411 663.972 74.5269C662.946 76.3127 661.388 77.7383 659.298 78.8022C657.208 79.8661 654.586 80.3979 651.432 80.3979C648.848 80.3979 646.493 80.0182 644.365 79.2583C642.275 78.4983 640.545 77.3965 639.177 75.9526C637.809 74.4708 636.917 72.7222 636.499 70.7085L643.624 68.7134C643.814 69.7772 644.232 70.7085 644.877 71.5063C645.523 72.3042 646.359 72.9312 647.385 73.3872C648.449 73.8052 649.685 74.0141 651.09 74.0142C653.294 74.0142 654.947 73.5195 656.049 72.5317C657.151 71.506 657.702 70.2712 657.703 68.8276C657.703 67.6877 657.36 66.737 656.676 65.9771C655.992 65.2172 655.024 64.5715 653.77 64.0396C652.554 63.5076 651.129 62.9945 649.495 62.5005C647.975 62.0445 646.474 61.55 644.992 61.0181C643.51 60.4861 642.161 59.8209 640.945 59.0229C639.729 58.225 638.76 57.1987 638.038 55.9448C637.354 54.653 637.011 53.0378 637.011 51.1001C637.011 48.6683 637.601 46.5971 638.779 44.8872C639.995 43.1774 641.648 41.8852 643.738 41.0112C645.828 40.1374 648.24 39.6998 650.976 39.6997ZM691.476 39.6997C695.58 39.6997 699.21 40.6886 702.364 42.6646C705.556 44.6025 707.949 47.3956 709.545 51.0435L703.104 52.9243C702.268 51.3284 701.223 50.0363 699.969 49.0483C698.753 48.0603 697.423 47.3383 695.979 46.8823C694.535 46.4264 693.072 46.1978 691.59 46.1978C689.158 46.1978 686.992 46.7874 685.092 47.9653C683.192 49.1053 681.71 50.7202 680.646 52.8101C679.62 54.9 679.107 57.3135 679.107 60.0493C679.107 62.7851 679.62 65.1987 680.646 67.2886C681.71 69.3404 683.192 70.9554 685.092 72.1333C686.992 73.3113 689.158 73.8999 691.59 73.8999C693.11 73.8999 694.611 73.6722 696.093 73.2163C697.613 72.7224 699.019 71.9049 700.311 70.7651C701.603 69.6253 702.706 68.1053 703.618 66.2056L709.944 67.9722C708.31 72.1139 705.878 75.2299 702.648 77.3198C699.418 79.3716 695.694 80.3979 691.476 80.3979C688.626 80.3979 685.966 79.9044 683.497 78.9165C681.065 77.9285 678.937 76.5217 677.113 74.6978C675.289 72.8739 673.863 70.7272 672.837 68.2573C671.811 65.7495 671.298 63.0131 671.298 60.0493C671.298 57.0475 671.812 54.3112 672.837 51.8413C673.863 49.3335 675.289 47.1858 677.113 45.3999C678.937 43.5762 681.065 42.1701 683.497 41.1821C685.966 40.1943 688.626 39.6998 691.476 39.6997ZM287.695 56.5737H290.032L304.053 40.1001H313.458L296.928 59.7085L313.915 80.0005H304.053L290.032 63.0142H287.695V80.0005H280V40.1001H287.695V56.5737ZM326.616 80.0005H318.92V40.1001H326.616V80.0005ZM361.416 67.8022V40.1001H369.111V80.0005H361.245L343.803 52.2983V80.0005H336.108V40.1001H343.917L361.416 67.8022ZM393.578 40.1001C397.834 40.1001 401.519 40.937 404.635 42.6089C407.789 44.2429 410.241 46.561 411.989 49.563C413.737 52.5649 414.611 56.0988 414.611 60.1646C414.611 64.1924 413.737 67.6889 411.989 70.6528C410.241 73.6166 407.789 75.9154 404.635 77.5493C401.519 79.1831 397.833 80.0005 393.578 80.0005H378.701V40.1001H393.578ZM449.63 46.5415H429.282V56.688H444.5V62.9009H429.282V73.5601H449.63V80.0005H421.586V40.1001H449.63V46.5415ZM473.823 40.1001C477.053 40.1001 479.713 40.671 481.803 41.811C483.931 42.913 485.508 44.4141 486.534 46.314C487.598 48.1758 488.129 50.2088 488.129 52.4126C488.129 53.8945 487.863 55.377 487.332 56.8589C486.8 58.3025 485.963 59.6324 484.824 60.8481C483.684 62.026 482.201 62.9768 480.377 63.6987C480.028 63.8398 479.663 63.9661 479.284 64.0796L488.928 80.0005H480.321L471.492 64.7817H465.102V80.0005H457.407V40.1001H473.823ZM508.377 71.1089L516.358 40.1001H525.022L532.888 70.9946L540.241 40.1001H548.506L537.448 80.0005H528.442L520.69 51.3862L512.881 80.0005H503.818L492.817 40.1001H501.082L508.377 71.1089ZM621.718 67.8022V40.1001H629.414V80.0005H621.547L604.106 52.2983V80.0005H596.411V40.1001H604.219L621.718 67.8022ZM724.638 56.5737H742.308V40.1001H750.002V80.0005H742.308V63.0142H724.638V80.0005H716.943V40.1001H724.638V56.5737ZM386.396 73.5601H393.35C397.644 73.56 400.95 72.3816 403.268 70.0259C405.586 67.632 406.745 64.3443 406.745 60.1646C406.745 55.9468 405.586 52.6219 403.268 50.1899C400.95 47.758 397.644 46.5416 393.35 46.5415H386.396V73.5601ZM465.102 58.3403H473.595C475.115 58.3403 476.369 58.1126 477.357 57.6567C478.345 57.1629 479.067 56.4786 479.523 55.605C480.017 54.6931 480.264 53.6284 480.264 52.4126C480.264 50.6266 479.713 49.2012 478.611 48.1372C477.547 47.0734 475.875 46.5416 473.595 46.5415H465.102V58.3403Z" fill="white"/>
</g>
<defs>
<clipPath id="clip0_89_620">
<rect width="750" height="240" fill="white"/>
</clipPath>
</defs>
</svg>
